<?xml version="1.0" encoding="utf-8"?>
<!-- Generator: Adobe Illustrator 24.0.2, SVG Export Plug-In . SVG Version: 6.00 Build 0)  -->
<svg version="1.1" id="Capa_1" xmlns="http://www.w3.org/2000/svg" xmlns:xlink="http://www.w3.org/1999/xlink" x="0px" y="0px"
	 viewBox="0 0 1366 768" style="enable-background:new 0 0 1366 768;" xml:space="preserve">
<style type="text/css">
	.st0{clip-path:url(#SVGID_2_);}
	.st1{fill:#E2B263;}
	.st2{clip-path:url(#SVGID_4_);}
	.st3{clip-path:url(#SVGID_6_);}
	.st4{clip-path:url(#SVGID_8_);}
</style>
<g>
	<defs>
		<rect id="SVGID_1_" x="762" y="36.1" width="440" height="823"/>
	</defs>
	<clipPath id="SVGID_2_">
		<use xlink:href="#SVGID_1_"  style="overflow:visible;"/>
	</clipPath>
	<g class="st0">
		<path class="st1" d="M1203,657.4l-77.1-527.4c-8-52.6-52.5-91.4-105.4-92.8v190.3l-47.6,15.9l15.1,60.3
			c-75,75-142.4,138.2-222.9,183.5v371.1h255.5V383.6c0-10.1,8.2-18.3,18.3-18.3c10.1,0,18.3,8.2,18.3,18.3v317.6L1203,657.4
			L1203,657.4z M847.1,785.1c-15.1,0-27.4-12.3-27.4-27.4s12.3-27.4,27.4-27.4c15.1,0,27.4,12.3,27.4,27.4S862.2,785.1,847.1,785.1z
			 M847.1,675.6c-15.1,0-27.4-12.3-27.4-27.4c0-15.1,12.3-27.4,27.4-27.4c15.1,0,27.4,12.3,27.4,27.4
			C874.5,663.3,862.2,675.6,847.1,675.6z M847.1,566.1c-15.1,0-27.4-12.3-27.4-27.4c0-15.1,12.3-27.4,27.4-27.4
			c15.1,0,27.4,12.3,27.4,27.4C874.5,553.8,862.2,566.1,847.1,566.1z"/>
	</g>
</g>
<g>
	<defs>
		<rect id="SVGID_3_" x="566.5" y="503.6" width="165" height="355.5"/>
	</defs>
	<clipPath id="SVGID_4_">
		<use xlink:href="#SVGID_3_"  style="overflow:visible;"/>
	</clipPath>
	<g class="st2">
		<path class="st1" d="M728.5,506.5c-9.5,4.8-16.2,8.1-30,14.3L567.8,858.1h160.6L728.5,506.5L728.5,506.5z"/>
	</g>
</g>
<path class="st1" d="M410.8,223.1c4.9-2.4,10.3-3.7,15.7-3.7c16.5,0,30.7,11.4,34.3,27.5l30.4,155h214.2l77.8-200.8h-36.5
	c-90.7,0-164.3-73.6-164.3-164.3h-122c-38.7,0-75.8,15.4-103.2,42.8l-48.5,48.5l73,109.5L410.8,223.1L410.8,223.1z"/>
<path class="st1" d="M717.8,470.9C860,397.9,947.5,292.4,947.5,292.4l-18.3-73l54.8-18.3V36.9H880.1c8,22.6,12.6,47.2,12.6,73
	C892.7,252.2,781.9,405.4,717.8,470.9L717.8,470.9z"/>
<g>
	<defs>
		<rect id="SVGID_5_" x="630.6" y="-91.2" width="226.1" height="240.4"/>
	</defs>
	<clipPath id="SVGID_6_">
		<use xlink:href="#SVGID_5_"  style="overflow:visible;"/>
	</clipPath>
	<g class="st3">
		<path class="st1" d="M855.2,91.6H765V73.3c0-17.2,9.3-21.1,24.7-32.2c18.8-13.7,30.1-35.8,30.1-59c0-40.2-32.8-72.9-73-73
			c-40.4,0-73,32.7-73,73c0,10.1,8.2,18.3,18.3,18.3c10.1,0,18.3-8.2,18.3-18.3c0-20.1,16.3-36.5,36.5-36.5
			c20.1,0,36.5,16.4,36.5,36.5c0,40.9-54.8,31.6-54.8,91.3v18.3h-97c10.9,22.8,28.3,41.8,49.8,54.8h172.1
			c1.7-12.2,2.8-24.4,2.8-36.5C856.2,103.8,855.8,97.7,855.2,91.6z"/>
	</g>
</g>
<g>
	<defs>
		<rect id="SVGID_7_" x="272.3" y="436.4" width="419.5" height="422.7"/>
	</defs>
	<clipPath id="SVGID_8_">
		<use xlink:href="#SVGID_7_"  style="overflow:visible;"/>
	</clipPath>
	<g class="st4">
		<path class="st1" d="M454.7,438.4L280.6,769.2c-5.5,10.5-8.4,22.1-8.4,33.9c0,30.4,24.6,55,55,55c21.4,0,40.9-12.4,49.9-31.9
			l115.8-249.6c2.9-6.2,9.2-10.5,16.6-10.5c10.1,0,18.3,8.2,18.3,18.3c0,2.8-0.6,5.4-1.7,7.7L419.4,825.4c-0.8,1.7-1.2,3.5-1.2,5.3
			c0,15.1,26.9,27.4,60.1,27.4c29,0,53.2-9.4,58.9-21.9l154.2-397.9L454.7,438.4L454.7,438.4z"/>
	</g>
</g>
</svg>
