<?xml version="1.0" encoding="utf-8"?>
<!-- Generator: Adobe Illustrator 24.0.2, SVG Export Plug-In . SVG Version: 6.00 Build 0)  -->
<svg version="1.1" id="Capa_1" xmlns="http://www.w3.org/2000/svg" xmlns:xlink="http://www.w3.org/1999/xlink" x="0px" y="0px"
	 viewBox="0 0 1366 992.1" style="enable-background:new 0 0 1366 992.1;" xml:space="preserve">
<style type="text/css">
	.st0{fill:#FFFFFF;}
</style>
<g>
	<path class="st0" d="M1203,769.5l-77.1-527.4c-8-52.6-52.5-91.4-105.4-92.8v190.3l-47.6,15.9l15.1,60.3
		c-75,75-142.4,138.2-222.9,183.5v371.1h255.5V495.7c0-10.1,8.2-18.3,18.3-18.3c10.1,0,18.3,8.2,18.3,18.3v317.6L1203,769.5
		L1203,769.5z M847.1,897.2c-15.1,0-27.4-12.3-27.4-27.4s12.3-27.4,27.4-27.4c15.1,0,27.4,12.3,27.4,27.4S862.2,897.2,847.1,897.2z
		 M847.1,787.7c-15.1,0-27.4-12.3-27.4-27.4c0-15.1,12.3-27.4,27.4-27.4c15.1,0,27.4,12.3,27.4,27.4S862.2,787.7,847.1,787.7z
		 M847.1,678.2c-15.1,0-27.4-12.3-27.4-27.4c0-15.1,12.3-27.4,27.4-27.4c15.1,0,27.4,12.3,27.4,27.4
		C874.5,665.9,862.2,678.2,847.1,678.2z"/>
</g>
<g>
	<path class="st0" d="M728.5,618.6c-9.5,4.8-16.2,8.1-30,14.3L567.8,970.2h160.6L728.5,618.6L728.5,618.6z"/>
</g>
<path class="st0" d="M410.8,335.2c4.9-2.4,10.3-3.7,15.7-3.7c16.5,0,30.7,11.4,34.3,27.5l30.4,155h214.2l77.8-200.8h-36.5
	c-90.7,0-164.3-73.6-164.3-164.3h-122c-38.7,0-75.8,15.4-103.2,42.8l-48.5,48.5l73,109.5L410.8,335.2L410.8,335.2z"/>
<path class="st0" d="M717.8,583C860,510,947.5,404.5,947.5,404.5l-18.3-73l54.8-18.3V149H880.1c8,22.6,12.6,47.2,12.6,73
	C892.7,364.3,781.9,517.5,717.8,583L717.8,583z"/>
<g>
	<path class="st0" d="M855.2,203.7H765v-18.3c0-17.2,9.3-21.1,24.7-32.2c18.8-13.7,30.1-35.8,30.1-59c0-40.2-32.8-72.9-73-73
		c-40.4,0-73,32.7-73,73c0,10.1,8.2,18.3,18.3,18.3s18.3-8.2,18.3-18.3c0-20.1,16.3-36.5,36.5-36.5c20.1,0,36.5,16.4,36.5,36.5
		c0,40.9-54.8,31.6-54.8,91.3v18.3h-97c10.9,22.8,28.3,41.8,49.8,54.8h172.1c1.7-12.2,2.8-24.4,2.8-36.5
		C856.2,215.9,855.8,209.8,855.2,203.7z"/>
</g>
<g>
	<path class="st0" d="M454.7,550.5L280.6,881.3c-5.5,10.5-8.4,22.1-8.4,33.9c0,30.4,24.6,55,55,55c21.4,0,40.9-12.4,49.9-31.9
		l115.8-249.6c2.9-6.2,9.2-10.5,16.6-10.5c10.1,0,18.3,8.2,18.3,18.3c0,2.8-0.6,5.4-1.7,7.7L419.4,937.5c-0.8,1.7-1.2,3.5-1.2,5.3
		c0,15.1,26.9,27.4,60.1,27.4c29,0,53.2-9.4,58.9-21.9l154.2-397.9L454.7,550.5L454.7,550.5z"/>
</g>
</svg>
