<?xml version="1.0" encoding="utf-8"?>
<!-- Generator: Adobe Illustrator 24.0.2, SVG Export Plug-In . SVG Version: 6.00 Build 0)  -->
<svg version="1.1" id="Layer_1" xmlns="http://www.w3.org/2000/svg" xmlns:xlink="http://www.w3.org/1999/xlink" x="0px" y="0px"
	 viewBox="0 0 800 800" style="enable-background:new 0 0 800 800;" xml:space="preserve">
<style type="text/css">
	.st0{fill:none;}
	.st1{fill:#CA9A51;}
</style>
<path id="_inner-path_" class="st0" d="M457.6,225c-18,0-35.2,7.3-47.7,20.1l-9.8,10.1l-9.9-10.1c-25.6-26.3-67.7-26.9-94.1-1.3
	c-0.4,0.4-0.9,0.9-1.3,1.3c-26.3,27.1-26.3,70.3,0,97.4L400,450l105.2-107.4c26.3-27.1,26.3-70.3,0-97.4
	C492.7,232.3,475.5,225,457.6,225z"/>
<path class="st1" d="M400,50c-151.8,0.2-274.8,123.2-275,275c-0.1,59.6,19.4,117.5,55.4,165c0,0,7.5,9.9,8.7,11.3L400,750l211-248.8
	c1.1-1.3,8.6-11.2,8.6-11.2l0-0.1c36-47.4,55.5-105.4,55.4-164.9C674.8,173.2,551.8,50.2,400,50z M505.3,342.6L400.1,450
	L294.7,342.6c-26.3-27.1-26.3-70.3,0-97.4c25.6-26.3,67.8-26.9,94.1-1.3c0.4,0.4,0.9,0.9,1.3,1.3l9.9,10.1l9.8-10.1
	c25.6-26.3,67.8-26.9,94.1-1.3c0.4,0.4,0.9,0.9,1.3,1.3C531.7,272.3,531.8,315.5,505.3,342.6z"/>
<rect id="_Transparent_Rectangle_" y="0" class="st0" width="800" height="800"/>
</svg>
