<?xml version="1.0" encoding="utf-8"?>
<!-- Generator: Adobe Illustrator 24.0.2, SVG Export Plug-In . SVG Version: 6.00 Build 0)  -->
<svg version="1.1" id="Capa_1" xmlns="http://www.w3.org/2000/svg" xmlns:xlink="http://www.w3.org/1999/xlink" x="0px" y="0px"
	 viewBox="0 0 480 672" style="enable-background:new 0 0 480 672;" xml:space="preserve">
<style type="text/css">
	.st0{fill:#FFFFFF;}
</style>
<g>
	<path class="st0" d="M112.8,306.3c3.1-0.6,5.3,0,7.2,2.3c1.7,2.1,2.5,4.4,2.4,7c2.1-1.7,4.1-3.4,6.2-5c4.1-3,8.9-4.1,13.8-4.2
		c1.6-0.1,2.1,0.8,1.5,2.5c-1.8,5.6-3.8,11.1-8.2,15.6c1.7,0.8,3.2,1.5,4.8,2.1c0.3,0.1,0.9,0,1.1-0.2c2.2-1.8,4.3-3.7,6.4-5.6
		c0.4-0.3,0.8-0.7,0.9-1.1c1.1-4.4,5.6-6,8.6-6.4c0.9-0.1,1.6,0.3,1.4,1.2c-0.8,3-1.3,6.3-3.9,8.5c-0.5,0.4-1,0.9-1.6,1
		c-1.1,0.3-2,1-2.8,1.8c-1.2,1.5-2.5,3-3.7,4.4c-0.6,0.6-1.1,1.1-1.7,1.6c-0.5,4.9-1.4,9.6-2.9,14.6c9.4-10.3,18.9-20.5,28.4-30.8
		c-1-0.3-1.8-0.7-2.8-1c-7.2-2.5-11.7-8.8-11.8-16.4c-0.1-4,0.6-7.8,2.6-11.3c0.3-0.6,0.5-1.1,0.9-1.7c1.6-2.7,1.3-5.3,0-7.9
		c-1.6-3-3.3-6.1-5.4-8.9c-4.7-6.4-6.5-13.3-5.5-21.2c0.5-4,2-7.8,3.2-11.5c0.5-1.3,0.5-2.5,0-3.8c-0.5-1.3-0.9-2.7-1.4-3.9
		c-4.7-10.5-3.4-20.2,3.5-29.3c2.2-2.8,4.5-5.3,7.4-7.4c1.3-1,2.6-2.1,3.9-3.1c10.4-8.9,21.9-15.5,35.1-19.5
		c4.9-1.4,9.9-1.8,14.8,0.3c1.5,0.7,2.9,1.8,4.4,2.7c0.8,0.5,1.6,0.9,2.5,1.1c6.7,1.6,12.5,5,17.1,10c3.2,3.6,5.9,7.8,7.7,12.4
		c2,5.1,4.2,10.1,6.1,15.2c1.2,3.5,2,7.2,3,10.8c0.4,1.4,0.9,3,1.5,4.2c3.3,5.8,4.8,12.1,5.1,18.7c0,0.3,0,0.5,0.1,0.8
		c0.1,0,0.2,0.1,0.3,0.1c4-2.7,7.9-5.3,11.9-8c1-0.7,1.6-1.5,1.8-2.8c0.7-3.7,2-7.2,4.2-10.4c0.8-1,1-2.4,1.4-3.5
		c0.6-1.6,1.1-3.2,1.7-5c0.1-0.3,0.1-0.7,0-0.9c-2.5-6.9-4.9-13.8-7.5-20.6c-1.8-4.6-2.1-9.2-1.2-14c0.3-1.9,0.1-3.6-0.4-5.4
		c-0.7-2.9-1.1-5.7-1.6-8.6c-0.2-1.1-0.2-2.1-0.4-3.1c-0.1-0.5-0.3-1-0.6-1.4c-2-2.9-3.5-5.8-4.1-9.3c0-0.3-0.1-0.7-0.1-1
		c0.6-3.3-0.6-6.4-1.7-9.5c-1.3-3.6-2.2-7.3-1.8-11.2c0.2-1.9,0.9-3.9,1.5-5.7c0.7-1.7,1.7-1.8,3.3-0.8c0.2-1.1,0.3-2.2,0.7-3.2
		c0.2-0.9,0.6-1.6,1-2.4c1.1-1.9,2.3-2,3.7-0.9c0.7-1.7,1.2-3.6,2-5.3c1-2.2,2.9-3.5,5.1-4.1c3.1-0.7,5.9-2.2,8.8-3.7
		c8.4-4.4,17.2-6.6,26.7-5.2c5.4,0.8,10.5,2.9,15.3,5.5c3.2,1.7,5.3,4.4,5.9,8.1c7,1.5,10.9,6.2,12.9,12.6c3,9.5,4.7,19.3,4.6,29.3
		c5.1,3.1,6.5,8,5.8,13.4c-0.6,5-2.1,9.7-4.5,14.2c-1.4,2.6-3.4,4.3-6.4,4.7c-0.8,0.1-1,0.4-1,1.1c-1.3,12.1-0.4,24.2,0,36.2
		c0.1,1.6,0.2,3.1,0.2,4.8c0,1-0.3,2-0.5,3.3c0.6-0.6,0.9-0.9,1.1-1.1c2.8-2.9,6-5.1,9.8-6.4c0.9-0.3,1.9-0.5,2.8-0.5
		c2.1-0.1,3.3,0.7,3.8,2.7c0.7,2.8,1,5.6,1.5,8.5c0.2,1.1,0,2.2,0,3.3c0.6,0,1.1,0,1.5,0c5.2-0.2,10,1,14.5,3.6
		c2.5,1.4,4,3.9,5.6,6.2c1.3,1.9,2.6,3.9,3.9,6c1.2-2.9,2.5-5.7,3.7-8.5c0.6-1.3,1.1-2.7,2-3.9c1.5-2.2,3.4-2.5,5.6-1
		c1.6,1.1,2.7,2.8,3.2,4.7c0.2,0.5,0.3,1,0.6,1.6c0.8-1.3,1.3-2.5,2.1-3.6c1.2-1.8,2.8-3.1,5-3.4c3.5-0.5,5.9,1,7,4.4
		c0.2,0.5,0.3,1,0.5,1.5c3.4,0.3,5.2,2.6,6.2,5.5c0.9,2.7,1.9,5.1,3.3,7.5c1.1,2,2.6,3.7,4.3,5.3c0.7,0.7,1.4,1.3,2,2.1
		c1.8,2.1,2.8,4.5,2.8,7.4c0,3.1-0.4,6.1-1.7,9.1c-1,2.1-1.5,4.3-2.2,6.6c-1.7,6.2-5.1,11.3-10.2,15.3c-0.3,0.2-0.6,0.4-0.9,0.6
		c-0.3,0.2-0.6,0.3-1,0.6c0.5,1.7,1,3.5,1.6,5.2c1,2.9,0.1,6.4-2.3,8.5c2.9,4.7,2.2,9.1-1.1,13.6c0.6,0.1,0.9,0.1,1.1,0.1
		c3.9-0.2,7.8-0.4,11.8-0.7c1.5-0.1,3-0.1,4.2,0.9c2.7,1.9,5.5,3.6,8,5.8c2.6,2.4,3.4,5.1,1.6,8.2c-0.3,0.6-0.2,1.3-0.1,2
		c0.6,3,0.9,6-0.5,8.9c-0.3,0.7-0.6,1.3-1.1,1.8c-1.3,1.1-1.7,2.7-1.9,4.3c-0.4,3.4-2.1,6.1-4.5,8.5c-0.3,0.3-0.5,0.6-0.8,0.9
		c0,0,0,0.1-0.1,0.2c2.9,3.1,3.3,7.3,4.4,11.3c1.1,4.5,1.7,9,1.6,13.6c-0.1,4.9-1.5,9.2-4.3,13.2c-3.1,4.5-7.7,6.5-13,7.3
		c-3.4,0.6-6.8,0.9-10.3-0.6c0.2,1.5,0.4,2.8,0.4,4.1c0.2,4,0.4,7.9,0.5,11.9c0.2,8.8,1.2,17.4,2.6,26.1c1.4,9.5,2.5,19.2,3.8,28.8
		c2,14.7,4.1,29.3,6.2,43.8c0.9,5.8,1.6,11.6,2.4,17.4c0.8,6.1-2.2,10.3-7.1,13.2c-1.2,0.8-1.6,1.6-1.6,3c0,2.9-0.7,3.7-3.5,4.1
		c-1.3,0.2-2.7,0.2-4,0.2c-43.4,0.3-86.6,0.6-130,0.9c-34.2,0.3-68.5,0.6-102.7,0.8c-47.8,0.4-95.7,0.7-143.5,1
		c-4.5,0-8.9-0.2-13.3-0.3c-0.4,0-0.9,0.1-1.1,0.3c-1,0.5-1.8,0.5-2.5-0.3c-0.8-0.8-0.7-1.7-0.1-2.6c2.1-3.1,3.7-6.6,6.6-9.1
		c1-0.9,1.2-1.9,1.2-3.2c0.1-2.8,0.3-5.5,0.9-8.2c2.5-12.8,6.7-25,13-36.4c4.6-8.4,10.9-15.2,18.3-21.1c5-4,10.2-7.7,15.2-11.7
		c3.5-2.9,7-5.8,10.3-8.8c6-5.2,9.9-11.8,12.7-19.2c0.8-2.1,1.8-4.1,2.8-6.2c1.3-3.1,3.7-5.1,6.3-7.1c3.1-2.2,6.1-4.2,9.6-5.5
		c0.9-0.3,1.1-0.9,1.1-1.8c0.1-2.5,0.4-4.9,0.7-7.3c0.2-1.1,0.1-1.9-1.1-2.3c-1-0.3-1.8-0.7-2.7-1c-2.1-1-4.1-1-6.4-0.7
		c-5,0.9-9.9,0-14.4-2.7c-1.1-0.7-2.4-1.3-3.6-2.1c-0.6,3.2-1,6.5-1.6,9.6c-1,5.3-1.7,10.8-1.2,16.2c0.2,2.1-0.4,4-1.4,5.9
		c-0.7,1.1-0.5,2.8-0.6,4.2c-0.3,2.4-0.5,4.8-0.8,7.1c-0.3,2.5-2.3,4-4.9,3.8c-0.1,0.1-0.2,0.1-0.2,0.2c-0.7,3.1-1.4,3.6-4.7,3.1
		c-1.6-0.3-3.3-0.5-5-0.9c-1.6-0.4-2.7-1.3-2.9-3c0-0.3-0.3-0.8-0.6-0.8c-2.9-1-3.1-3.4-2.6-5.4c1-3.5,2.3-7.1,3.3-10.7
		c0.2-0.6,0-1.2,0-1.9c0-1.2-0.2-2.5,0-3.7c0.8-5.4,1.5-10.8,2.3-16.1c0-0.1,0-0.3,0-0.3c-0.9-0.4-1.7-0.6-2.4-1
		c-2.1-1.4-2.8-4-1.7-6.5c0.2-0.6,0.5-1,0.7-1.6c0.3-1,0.5-1.8,0.7-2.8c-3.1-1-3.5-3.5-3.5-6.3c-3.7-0.3-5.9-4.3-4.3-7.9
		c0.5-1,1.3-2,2.2-2.8c1.3-1.3,2.9-2.6,4.3-3.9c-3-2.9-3.3-6.2-2.3-9.8c0.1-0.3,0.2-0.7,0.4-1c0.9-1.1,1.9-2.2,2.7-3.4
		c0.8-1.1,1-2.6,1.8-3.7c0.9-1.2,2-1.6,4.4-1.9c-0.2-1-1-0.7-1.4-0.4c-2.2,1-4.5,2.1-6.6,3.3c-4.2,2.3-8.6,4.1-13.2,5.2
		c-4.2,1-8.3,1.9-12.5,3c-1,0.3-2,0.6-3,1c-1.2,0.4-1.8,0-1.6-1.3c0.5-3.1,2.2-5.6,4.1-8c3.3-4.2,7.8-6.6,13-7.6
		c4.3-0.9,8.8-1.2,13.2-1.8c0.5-0.1,0.9-0.1,1.3-0.4c-0.8-0.3-1.5-0.8-2.4-0.9c-3.5-0.7-7.1-1.3-10.8-1.9c-0.7-0.1-1.5,0.2-2,0.7
		c-1.9,1.4-3.9,1.6-5.9,0.3c-1.4-0.9-2.9-1.7-4.2-2.7c-0.9-0.7-1.7-1.4-2.3-2.4c-0.6-1,0.2-1.9,1.3-2c1-0.1,2.3-0.3,3.2-0.7
		c2.2-1.1,4.4-1,6.6-0.3c1.4,0.5,2.3,1.4,2.7,3c5.3-0.2,10.6,0.1,15.7,1.8c-0.5-0.6-1-1.1-1.5-1.6c-2.4-2.2-4.8-4.4-7.2-6.6
		c-3.8-3.3-5.4-7.8-6.2-12.7c-0.2-1.2,0.7-1.9,1.7-1.6c3.2,1,6.5,2.2,9.6,3.5c1.2,0.5,2.3,1.5,3.6,2.2c-0.8-1.4-1.5-2.9-2.4-4.3
		c-0.2-0.3-0.7-0.4-1-0.3c-3.3,0.2-5.8-1.2-7.1-4.4c-0.5-1.1-0.9-1.2-1.9-0.8c-2.3,1-4.2-0.1-5.8-1.6c-1.5-1.3-1.5-3-0.7-4.9
		c0.9-1.8,1.5-3.7,2.5-5.4c1.8-3.2,4.9-4.5,8.4-4.4c0.9,0,1.7,0.7,2.8,1c0.1-0.4,0.3-1,0.5-1.5c-5.1-4.2-7.2-9.5-6.8-16
		c0.2-2.5,0.8-3,3.2-2.7c6.7,0.8,11.1,4.6,14.5,9.8c1.4-0.4,2.9-1,4.4-1.1c2.7-0.3,5,0.8,6.9,2.6c1.2,1.1,1.7,2.8,1.2,4.3
		c-1,2.7,0.3,4.6,1.9,6.4c0.1-0.2,0.2-0.3,0.2-0.5c-0.1-5.1-0.8-10.2-2.6-15c-0.1-0.3-0.3-0.8-0.6-0.9c-2.7-0.8-3.3-2.9-4-5.1
		c-0.5-1.8-1.1-3.6-1.5-5.3c-0.1-0.3,0-0.9,0.2-1c0.3-0.2,0.9-0.3,1.1-0.2c2,1.1,4,2.2,5.9,3.5c1.8,1.2,2.5,3.1,2.5,5.3
		c0,0.4,0,0.9,0.2,1.2c0.9,1.8,1.8,3.5,2.7,5.3c0.5-1.6,0.9-3.4,1.4-5.1c1.3-4.3,3.1-8.3,6.8-11.1c1.2-1.1,2.9-1.7,4.4-2.3
		c1.4-0.6,2.1,0.1,2.2,1.6c0.1,1.3,0.3,2.7,0.5,4c0.7,4,0,7.7-1.9,11.2C113.1,305.4,113,305.8,112.8,306.3z M282.2,548.5
		c3,6,5,12.2,6.1,18.8c0.2,1,0.8,0.8,1.4,0.8c6.7-0.1,13.3-0.1,20-0.2c37.5-0.3,75.2-0.7,112.7-1c0.9,0,1.2-0.3,1.4-1.1
		c0.8-2.5,1.7-4.8,4-6.4c1.3-1,2.5-2.2,3.7-3.3c1.4-1.2,1.7-2.7,1.4-4.7c-1.9-13.1-3.6-26.3-5.3-39.4c-1.4-11.2-2.9-22.5-4.3-33.7
		c-0.8-5.6-1.2-11.3-2.2-17c-1.5-9.1-2.7-18.2-2.7-27.3c0-8.5-1-16.9-2.1-25.3c-1.3-10.7-1.8-21.4-2-32.2c0-1.4,0.1-3,0.2-4.4
		c0.1-1,0.4-1.8,0.6-2.9c-4.3-3-5.1-5.7-2.8-9.9c-0.7-1.1-1.3-2.3-2.1-3.5c-0.6,1.3-1.2,2.6-1.6,3.8c-2.4,7.5-6.5,14.1-11.1,20.4
		c-9.2,12.6-20.6,23.1-31.9,33.6c-1.7,1.6-3.3,3.3-4.7,5.2c-2.4,3.2-5.3,5.8-9.1,7.4c-3.7,1.7-7.6,1.9-11.2-0.3
		c-6.4-3.9-12.9-7.6-19-12c-14.2-10.1-27.8-20.9-39.1-34.5c-7.9-9.6-15.7-19.3-21.6-30.3c-0.1-0.2-0.2-0.3-0.3-0.4
		c0.9,3.1,2,6.1,3.2,9c2.6,5.8,5.4,11.4,7.9,17.3c3.6,8.4,7.1,16.8,10.6,25.3c0.6,1.3,0.9,2.8,1,4.1c0.3,2.4,0.5,4.9,0.5,7.2
		c-0.2,9.3-0.2,18.8-0.7,28.1c-0.6,10.3-1.6,20.6-2.6,30.9c-2,21.6-3.8,43.3-7.2,64.8c-0.1,0.5,0.2,1.2,0.6,1.6
		c1.4,1.9,3,3.7,4.5,5.5c0.5,0.6,1.1,1,1.7,1.2c9.4,3.1,19.1,5.6,28.8,7.4c19.4,3.5,39.2,5.1,59,5.3c5.2,0.1,10.5-0.5,15.6-1.1
		c2.5-0.3,4.8-1.4,7.2-2.1c3.3-0.9,5.6-2.5,5.9-6.2c0.1-1,0.4-2.2,0.5-3.2c1-10.1,0.7-20.2-0.1-30.3c-0.8-10.4-1.7-20.9-2.2-31.3
		c-1.1-23.3-1.3-46.7-2.9-70c-0.4-6.4-0.3-12.9-0.4-19.3c0-1,0.4-1.8,1.5-2c1.1-0.1,1.6,0.7,1.9,1.6c0.1,0.3,0.1,0.6,0.1,0.9
		c0.1,2,0.1,4.1,0.2,6.1c0.6,9.4,1.3,18.8,1.8,28.2c0.7,12.6,1.1,25.3,1.7,37.9c0.5,10.2,0.9,20.4,1.2,30.6c0.3,7.5,0.6,15,0.8,22.5
		c0.2,7.7,0.5,15.3,0.5,23.1c0,3.4,1,6.3,3.2,8.8c0.1,0.1,0.1,0.1,0.2,0.2c1.1,1.8,2.5,2.2,4.5,1.8c3.9-0.9,7.9-1.6,11.8-2.3
		c1.6-0.3,3.2-0.3,4.9-0.3c1,0,1.9,0.8,1.9,2s-0.8,1.8-1.9,2c-0.9,0.2-1.7,0.2-2.6,0.4c-4.6,0.8-9.1,1.5-13.7,2.2
		c-2.9,0.4-5.3-0.5-6.9-3.1c-0.5-0.8-1-1.6-1.5-2.5c-0.2,0.4-0.3,0.6-0.4,0.9c-0.9,2.2-2.3,3.8-4.7,4.6c-3.6,1.1-7.1,2.5-10.7,3.3
		c-5.4,1.3-11.2,1.6-16.7,1.4c-9.6-0.4-19.3-0.8-28.9-1.5c-15.3-1.1-30.5-3.3-45.4-7.5C290.5,551.2,286.4,549.8,282.2,548.5z
		 M126,438.1c-0.2,0.1-0.4,0.2-0.5,0.3c-3.7,2.2-7.4,4.3-11.1,6.5c-1.3,0.8-2.5,1.7-3.1,3.2c-1.4,4-2.9,7.9-4.2,11.9
		c-1.9,5.6-4.6,10.9-9.1,14.9c-4.6,4.1-9.2,8-14.1,11.7c-4.6,3.5-9.4,6.6-14,9.9c-12.6,9.1-21.6,20.9-25.3,36.2
		c-1.6,7-3.1,14-4.8,21.1c0,0.2-0.1,0.4-0.1,0.9c0.5-0.6,0.8-0.9,1-1.2c5.7-7.7,11.4-15.4,17.2-23.1c7.7-10.3,15.5-20.6,23.3-30.8
		c0.3-0.4,0.8-0.8,1-1.1c0.1,0.1,0.3,0.2,0.4,0.3c-0.2,0.6-0.4,1.2-0.7,1.7c-3.4,5.5-6.8,11.1-10.3,16.5
		c-9.5,14.6-19.2,29-29.9,42.7c-2.4,3-5,6-7.4,9.1c-0.5,0.6-0.9,1.1-1.1,1.6c49.4-0.5,98.6-0.9,148-1.3c-0.2-0.5-0.3-0.8-0.3-1
		c-1.5-5.1-3.5-10-4.7-15.2c-3-13.9-4.4-27.9-4.5-42.1c-0.1-7.3,0-14.8-0.5-22.1c-0.7-9.2-2.4-18.3-8.6-25.8c-1.1-1.4-2.5-2.7-3.7-4
		c-0.3-0.3-0.4-0.7-0.6-1.1c0.4-0.1,0.9-0.3,1.2-0.1c1,0.4,1.9,0.8,2.6,1.4c3,3.1,6.2,6.3,7.9,10.5c3,7.4,4.8,15.2,5.1,23.2
		c0.8,13.3,1,26.8,2.6,40.1c1.5,12,3.7,23.7,8.2,35c0.4,0.9,0.8,1.1,1.6,1.1c31.3-0.2,62.5-0.5,93.8-0.7c0.4,0,0.8-0.1,1.3-0.1
		c-0.1-0.6-0.1-1-0.2-1.4c-2-11-7.1-20.3-15-28.1c-2.1-2-3.6-4.3-4.7-6.9c-1-2.2-1.6-4.6-2.4-6.9c-1.6-5.3-3-10.6-4.7-15.9
		c-1.4-4.7-3.5-9.1-6.8-13c-4.9-5.8-11-10.5-16.7-15.4c-4.1-3.5-8.6-6.7-13-9.9c-0.9-0.7-1.7-1.2-2.7-1.7c-0.6-0.3-1.2-0.5-1.9-0.5
		c-2-0.2-4.1-0.1-6.1-0.5c-3.9-0.8-7.7-1.9-11.5-2.9c-0.3-0.1-0.6-0.1-1-0.2c0.5,1.6,1,3,1.4,4.6c2.8,9,5.1,18.1,8.8,26.8
		c0.9,2.1,2.2,3.8,4,5.2c3.5,2.9,7.1,5.6,10.4,8.8c4.5,4.3,8.8,8.9,13,13.4c2.5,2.7,3.8,6,4.6,9.5c1,4.1,1.9,8.2,2.8,12.4
		c0.1,0.5,0.2,1.1,0.1,1.6c-0.1,1.1-0.7,1.8-1.7,2.1c-1.1,0.3-2.1-0.2-2.6-1.1c-0.5-1-0.9-2-1.1-3c-0.6-2.4-1.1-4.8-1.5-7.1
		c-0.9-4.4-2.2-8.6-5.1-12.2c-5.9-7.4-12-14.8-19.3-20.9c-4.8-3.9-8.2-8.7-9.9-14.6c-2.3-8.1-4.5-16.3-6.6-24.5
		c-0.4-1.4-1-2.2-2.4-2.6c-7.2-1.8-13.9-4.5-20.3-8.2c-8.3-4.9-16.3-10.2-24-15.9c-5.5-4.2-11.2-8.2-16.8-12.3
		c-0.4-0.3-0.9-0.6-1.5-1c-0.2,2.8-0.4,5.2-0.5,7.7c0,1-1,2.2,0,3c0.8,0.7,1.9,1,3,1.3c4.9,1.6,9.7,3.1,14.6,4.8
		c1,0.3,1.8,0.7,2.7,1c0.8,0.4,1.1,1.1,1,2c-0.2,0.9-0.9,1.3-1.7,1.3c-0.5,0-1-0.1-1.5-0.2c-2.5-0.7-5-1.3-7.4-2.1
		C134.4,443,129.5,442,126,438.1z M278.9,238.3c-1.1,0.9-2.2,1.7-3.2,2.5c-6.6,4.7-13.2,9.4-19.1,14.9c-1.8,1.6-3.6,3.3-5.1,5.2
		c-3.3,4.2-5.8,8.9-7.5,13.9c-1.3,4.2-2.4,8.4-1.5,12.8c1.1,5.1,2.4,10.4,3.4,15.5c1.6,7.5,3.6,15.1,6,22.4c0.1,0.4,0.3,0.8,0.5,1.1
		c1.4,2.4,3,4.8,4.3,7.2c4.3,8,8.6,16.1,13.9,23.5c5,7.1,10.5,13.9,16.4,20.3c4.6,5.1,9.1,10.2,14.3,14.6
		c11.7,10,24.1,19.2,37.3,27.3c1.7,1.1,3.3,2.3,5,3.3c0.7,0.4,1.4,0.8,2.1,0.8c5.4-0.8,10.2-3,13.5-7.4c0.7-1,1.4-1.8,2.3-2.7
		c2.2-2.5,4.4-5,6.6-7.4c0.8-0.9,1.4-1.6,2.2-2.4c6.3-6.5,12.7-12.9,18.9-19.5c5-5.2,9.2-11.2,12.6-17.4c3.1-5.7,5.9-11.6,8.6-17.6
		c0.9-1.9,1.3-3.8,2.9-5.2c-1.9-2.4-1.8-5.2,0.3-7.3c1.7-1.7,4-2.6,6.4-3c1-0.2,1.6-0.7,2.1-1.4c0.7-1.1,1.3-2.3,2-3.4
		c0.9-1.3,1.1-2.6,0.4-4c-1.1-2.5-2.1-5-3.1-7.3c-0.6-1.2-1.3-2.4-2.2-3.5c-5.4-7.1-13-11.3-21.3-14.3c-1.3-0.5-2.9-0.5-4.3-0.7
		c-0.4,0-0.9,0.2-1.2,0.5c-0.8,0.6-1.4,1.3-2.3,1.9c-2.6,1.8-4.8,4-6.7,6.6c-6.1,8.2-12.1,16.3-18.4,24.3c-3.6,4.7-7.6,9-12.3,12.7
		c-3.2,2.5-6.3,5.2-9.3,8c-2.5,2.4-4.8,5-7.1,7.4c-0.8,0.8-1.4,1.6-2.4,2.3c-0.5,0.4-1.2,0.2-1.9,0.3c-0.1-0.7-0.2-1.3-0.2-2
		c0-0.2,0.2-0.4,0.3-0.6c2-4.1,5-7.5,8.2-10.8c0.5-0.5,1-0.7,1.2-0.9c-1.5-2.7-2.9-4.8-4-7.1c-2.3-4.4-4.4-9-6.8-13.3
		c-2.8-5-5.8-9.6-8.8-14.5c-2.4-3.9-5-7.8-7.1-11.9c-5-9.6-10.9-18.6-17.6-27c-3.2-4-6.5-8-9.8-11.9c-1-1.1-2.2-2.2-3.6-2.7
		c-4.1-1.5-8.5-2-12.9-1.8c-4.1,0.2-7.8,2.1-11.2,4.4c-2.1,1.4-4,3-6,4.5c-0.5,0.4-1,0.8-1.4,1c-0.4,0.1-1,0.2-1.2-0.1
		c-0.3-0.3-0.4-1-0.2-1.3c0.6-1,1.1-2.1,1.9-2.9c2.5-2.7,5.2-5,8.5-6.6c3.8-2,7.8-3.2,12.2-2.5c1.4,0.3,2.9,0.6,4.3,0.8
		c5.5,0.8,10.3,3,13.8,7.5c3.1,4,6.4,7.7,9.6,11.5c5.9,6.9,11.1,14.2,15.3,22.1c1.7,3.1,3.4,6.2,5.4,9.1
		c7.6,11.6,15.2,23.3,21.4,35.5c0.5,0.9,1,1.7,1.7,2.6c1.4-1.1,2.7-2.2,4-3.1c7.6-5.7,14.7-11.9,20.1-19.8c3.5-5.1,7.3-10,11.2-14.9
		c2.3-3,4.8-5.9,7.3-8.8c0.7-0.8,1.8-1.1,2.8-1.8c0.2-0.2,0.5-0.4,0.6-0.6c0.7-2.3,1.7-4.5,3.6-6.1c-2.5-2.9-3.8-6.1-4.2-9.8
		c-0.3-3-0.7-5.9-1.3-8.8c-1.1-4.4-0.4-8.3,2.2-11.9c0.7-1,0.7-1.8,0-2.8c-1.9-3-3.8-5.9-5.8-8.8c-0.8-1-1.8-2.1-3-2.7
		c-3.9-1.8-8-3.1-12.2-3.6c-1.3-0.2-2.5-0.3-2.9,1.4c-0.1,0.4-0.4,0.7-0.7,1c-1.9,2.8-3.8,5.5-5.7,8.4c1.6,2.9,3.3,5.8,5.1,8.8
		c4.4,7.9,7.4,16.4,10,25c1.5,5.2,2.7,10.7,3.9,16.1c0.3,1.3-0.2,2.5-1.1,2.8c-1.1,0.4-1.7-0.5-2.4-1.1c-0.1-0.1-0.2-0.2-0.2-0.3
		c-1.8-2.3-3.6-4.6-5.3-7c-6.5-8.6-14-16.3-22.4-23c-6.6-5.2-13.5-10.2-20.2-15.3c-9.2-7.1-18.4-14-26.7-22.1
		c-4.9-4.8-9.7-9.6-13.3-15.4c-0.7-1-1.6-1.8-2.6-2.8c-0.2,0.8-0.2,1.4-0.4,2c-0.6,1.9-1.1,3.9-1.9,5.8c-1.2,3-2.7,6.1-4,9.1
		c-0.1,0.3-0.2,0.8,0,1c0.6,1,1.1,2,1.9,2.9c3.2,3.8,6.6,7.6,9.8,11.3c0.8,0.9,1.5,1.2,2.8,1.1c5.6-1.1,11.1-0.3,16.8,0.2
		c0.7,0.1,1.7,0.7,1.9,1.2c0.2,0.7-0.4,1.5-0.7,2.4c-0.1,0.3-0.5,0.5-0.7,0.7c-1.9,2-3.8,4-5.7,6c-0.7,0.8-0.7,1.2,0.2,1.8
		c2.3,1.5,4.5,3,6.8,4.5c9.1,5.5,18.2,11.1,27.3,16.6c11,6.6,21.5,13.9,31.5,21.8c0.6,0.5,1.1,1,1.6,1.5c0.5,0.6,1,1.4,0.2,2
		c-0.5,0.4-1.4,0.5-2,0.3c-0.9-0.3-1.6-0.9-2.3-1.4c-14.9-11.4-30.3-22-46.1-32.1c-6.1-3.9-12.3-7.5-18.4-11.4
		c-3.5-2.3-3.4-3.1-0.5-6.1c1.6-1.6,3.1-3.2,4.9-5.1c-2.5-0.2-4.7-0.4-7-0.4c-2.7,0-5.3,0.3-8,0.2c-1,0-2.2-0.4-2.9-1
		c-2.1-2.1-4.2-4.3-6-6.6C282.8,243.7,280.9,241,278.9,238.3z M201.8,345.7c0.2,0,0.4,0,0.7,0c0.2,1.5,0.5,3,0.7,4.5
		c1,10.9,2,21.6,2.8,32.5c0.5,7.7,0.7,15.3,0.9,23.1c0.1,5-0.2,9.9-1.3,14.7c-0.2,0.7,0,1,0.6,1.4c0.9,0.6,1.8,1.2,2.5,2.1
		c0.3,0.4,0.4,1.2,0.2,1.6c-0.1,0.3-1.1,0.4-1.5,0.2c-1.2-0.4-2.3-0.9-3.5-1.3c-11.7-3.6-23.5-7.2-35.3-10.8
		c-7.7-2.4-15.5-4.6-23.3-7.1c-5-1.6-10-3.9-15.1-5.5c-3.9-1.2-7.3-3-10.5-5.4c-2.5-1.9-5.1-3.5-7.6-5.2c-4.3-2.9-8.9-5.1-12.4-9.1
		c-1.3-1.4-3-2.8-4.9-3.4c-4.2-1.7-8.5-3-12.8-4.4c-1.6-0.6-3.2,0.2-4.3,1.6c-1.1,1.7-0.8,3,1,4c0.6,0.3,1.2,0.6,1.8,0.8
		c4.6,1.2,8.4,4,12.5,6.4c0.4,0.2,0.6,0.6,1,0.8c0.6,0.3,1,0.6,1.6,0.9c1,0.4,2.1,0.7,3,1.1c0.3,0.1,0.5,0.9,0.4,1.1
		c-0.1,0.3-0.8,0.5-1.1,0.4c-1,0-2-0.4-2.9-0.2c-3.2,0.8-6.5,0-9.7-0.2c-6.7-0.5-6.4-1-11.2,4c-1.2,1.3-2.8,2.4-4.1,3.6
		c-0.4,0.4-0.9,1-1,1.5c-0.1,1,0,1.9,0.2,2.9c0.3,1.4,1,1.7,2.3,1.1c1.1-0.5,2.3-1.1,3.3-1.7c3.2-1.8,6.7-3.5,10.5-3.5
		c2,0,3.9,0.5,5.5-1.1c0.1-0.1,0.7-0.1,0.8,0c0.2,0.2,0.3,0.7,0.2,0.9c-0.1,0.3-0.4,0.6-0.7,0.8c-2.5,2.2-4.9,4.3-7.3,6.5
		c-2.8,2.4-5.8,4.6-6.7,8.5c-0.4,1.6-0.9,3.1-1.2,4.7c-0.1,0.4-0.2,0.8-0.1,1.1c0.2,1,0.8,1.5,1.8,1.8c1.1,0.2,1.1-0.6,1.5-1.2
		c0.7-1.3,1.2-2.8,2.1-4c2.6-3.9,5.1-7.8,7.9-11.6c0.9-1.1,2.2-1.8,3.4-2.7c0.3-0.2,0.8-0.1,1.4-0.2c-0.3,0.4-0.4,0.7-0.5,0.8
		c-1.6,0.9-2.5,2.4-3.1,4.1c-1,2.4-2.2,4.7-4,6.6c-3.2,3.4-5.1,7.5-5.1,12.3c0,1.2,0.2,1.6,1.4,1.3c0.8-0.2,1.5-0.6,2.3-1
		c1.8-1.1,2.5-3.1,3.4-4.9c0.8-1.6,1.9-2.9,3.5-3.6c1-0.5,2-0.7,2.9-1.1c2.5-1.3,5-1.1,7.3-0.1c3.9,1.7,8,2.4,12.2,2.8
		c4.2,0.4,8.3,1,12.2,2.7c6.3,2.8,11.9,6.6,17.5,10.5c6.2,4.4,12.3,8.9,18.6,13.1c7.1,4.7,14.5,9.2,22.6,12
		c7.6,2.7,15.3,5.2,23.1,7.6c2.1,0.7,4.4,0.7,6.6,0.6c2.9-0.2,5.5-1.2,8.1-2.5c3.2-1.6,5.7-3.7,6.4-7.4c0.1-0.4,0.3-0.8,0.4-1.2
		c5.2-15.8,9.7-31.7,12.8-48.1c1.8-9.8,3.7-19.6,4.9-29.4c1.6-14.1,2.5-28.2,3.7-42.4c0.2-1.9,0.3-3.7-0.5-5.7
		c-3.5-9.1-5.4-18.5-8.1-27.7c-0.6-2.2-1.2-4.4-1.9-6.7c-2,3.5-3.1,4.6-6.4,6c-1,0.4-1.9,0.8-3,1.1c-2.1,0.8-4.3,1.2-6.3,2.2
		c-1,0.5-2,1.4-2.7,2.3c-0.6,0.8-0.7,1.9,0.4,2.6c0.8,0.6,1.2,1.1,0.7,2.1c-0.6,0.9-1.4,0.7-2.2,0.2c-1.9-1.1-3.6-2.4-4.8-4.4
		c-0.3-0.5-0.5-1-0.8-1.4c-1.3,2.4-1,4.8,0.7,6.7c1.6,1.8,3.6,2.9,6.1,3.1c1.7,0.2,2,1,1,2.4c-0.4,0.7-1,1.2-1.7,1.6
		c-1,0.5-2,0.9-3.1,1c-5.2,1-9.9,0.3-13.6-3.9c-0.1-0.1-0.2-0.1-0.7-0.3c-2.8,5.4-5.4,11-8.1,16.4c-0.2,0.4-0.3,0.9-0.4,1.3
		c-1.1,6.4-1.3,12.8,1,19.1c1.2,3.3,2.5,6.7,3.7,10C201,356.4,200.9,351,201.8,345.7z M219.1,305.8c1.3-3.6,2.7-5,6.2-6.4
		c1-0.4,1.9-0.8,3-1.1c4.4-1.3,8.3-3.4,10.6-7.6c0.2-0.4,0.4-1,0.3-1.4c-0.9-3.5-0.8-7.1,0.1-10.6c2.8-10.9,7.8-20.3,16.5-27.4
		c2.9-2.3,3.7-4.7,3.2-8.2c-0.8-5.6-1.7-11-4.7-15.8c-1-1.5-1.4-3.4-1.9-5.1c-1-3.4-1.6-7.1-2.7-10.5c-1.6-5.1-3.6-10.1-5.4-15.2
		c-1.5-4.3-3.7-8.2-6.7-11.5c-3.2-3.7-7.6-5.9-12.1-7.8c-2.4-1-4.8-1.9-7.1-3.1c-4.1-2.3-8.8-3.2-13.5-2.8
		c-3.8,0.4-7.2,1.8-10.8,3.2c-10,4.2-18.9,10.3-28,15.9c-2.8,1.7-5.4,3.6-7.2,6.4c-2,3.2-3.9,6.5-5.6,9.9c-1.5,3.1-2,6.6-1.4,10.1
		c0.5,3.1,1.1,6.1,2,9.1c1.1,3.8,1.6,7.5-0.3,11.3c-1,1.8-1.4,3.9-1.9,5.9c-1.7,8-0.2,15.3,4.4,22.1c1.7,2.6,3.5,5.1,5.1,7.8
		c3,5.1,3.5,10.2,0.2,15.4c-1.7,2.8-2.4,5.9-2.5,9.1c-0.2,5.3,2.6,11.7,8.7,14c1.1,0.5,2.3,0.9,3.4,1.2c2.1,0.9,3.5,2.3,4.2,4.6
		c0.7,2.4,0.9,4.8-0.5,7.4c3-0.9,5.8-1.1,7.6-3.4c1.5-1.9,2.6-4.1,2.9-6.6c0.4-2.6,0.8-5.1,1-7.7c0.2,0,0.3,0,0.5-0.1
		c2.7,2.8,1.6,6.4,2,9.7c0.9-1.5,1.7-3,2.1-4.6c1.6-6.6,1.5-13.2-0.5-19.7c-0.2-0.5-0.6-1-1.1-1.2c-1.5-1-2.8-2.2-3.2-4
		c-0.6-2-1.6-3.8-3-5.3c-3-3.6-6-7.1-9-10.7c-3.1-3.9-6.3-7.9-7.1-13c-0.6-3.6-0.7-7.2-0.9-10.9c-0.1-1.7-0.3-3.3-1.1-5
		c-1.2-2.4-2-4.9-1.6-7.5c0.6-4.5-0.2-9-1-13.3c-0.9-4.5-0.7-9,1.7-13.1c0.4-0.6-1.1-2.8-1.8-2.8c-0.3,0-0.6,0.2-0.7,0.5
		c-0.5,0.7-1,1.2-1.3,2c-1.3,2.7-2.3,5.4-2.7,8.5c-0.1,1-0.3,2-0.5,3c-0.2,0-0.4,0.1-0.5,0.1c-0.3-0.8-0.8-1.4-0.8-2.2
		c-0.3-4.8,1.1-9.1,4.1-12.8c1.3-1.7,3.5-2,5.4-0.8c0.7,0.4,1.3,0.9,1.9,1.4c1,0.9,1.9,1.1,3,0.5c3.6-1.7,7.3-3.3,10.8-5.3
		c2.7-1.5,5.2-3,7.1-5.7c1-1.5,2.1-3,3.2-4.5c4.6-5.6,10.4-9.4,17.4-11.2c1.6-0.4,3.4-0.2,5.1-0.2c0.3,0,0.6,0.5,1,0.8
		c-0.3,0.3-0.5,0.6-0.8,0.8c-1.7,0.8-3.5,1.5-5.3,2.2c-6.1,2.3-11.7,5.3-16.2,10.2c-1.9,2-3.7,4.2-5.5,6.2c1,2.4,2.5,4.2,4.8,5
		c2.2,0.8,4.5,1.4,6.8,1.7c4,0.7,8.1,1,12.2,1.5c2.1,0.3,3.5,1.3,4.3,3.2c1.1,2.6,2.3,5.1,3.3,7.7c0.7,1.7,1.4,3.1,3,4.2
		c0.6,0.4,1,1,1.5,1.2c3.1,1.8,4.2,4.7,4.5,8c0.3,2.9,0.9,5.6,2.3,8.2c0.3,0.6,0.9,1.1,1.2,1.6c0.4-0.6,0.6-1,0.6-1.3
		c0-2,0.1-4.1-0.1-6.1c-0.4-4.5,0.3-8.5,4.3-11.2c0.6-0.4,1.1-0.7,1.9-1.2c-1.2-1-2.5-1.9-3.6-2.9c-3-2.5-6-5-9-7.6
		c-0.6-0.5-0.9-1.2-1.3-2c-0.1-0.2,0-0.5,0-0.9c1.1,0.9,2,1.6,3.1,2.2c3.4,2.1,7.1,4.1,10.5,6.2c3.6,2.2,5.9,5.6,7.2,9.5
		c1.8,5.1,1.8,10.3,1.2,15.5c-0.3,2.8-1.2,5.4-3.2,7.4c-1.8,1.8-3,3.9-4.2,6c-3.4,6-7.7,11.2-13.9,14.5c-4.1,2.1-8.1,4.4-12.3,6.3
		c-3.2,1.5-6.3,3.3-8.5,6.3c-4.4,5.6-6.4,12-5.2,19.2c0.2,1.3,0.9,2.6,1.3,3.9c0.1,0,0.3-0.1,0.4-0.1c0.2-1.3,0.4-2.7,0.6-4.1
		c0.7-5.1,2.3-9.9,5.1-14.3c0.5-0.7,1.1-1.2,1.6-1.8c0.2,0.4,0.3,0.6,0.2,0.8c-3.3,6.3-4.1,13.2-4.1,20.2c0,2,0.4,3.9,1.6,5.6
		c2.8,3.6,8.1,5.3,12.6,4c-0.2-0.1-0.4-0.2-0.6-0.3c-0.2-0.1-0.4-0.2-0.6-0.3c-3.1-1.9-4.9-4.7-4.4-8.5c0.4-3.1,2.1-5.3,4.7-7
		c0.4-0.2,1.1,0.1,1.6,0.2c-0.1,0.5,0,1.1-0.3,1.4C217,302.6,217.1,304.3,219.1,305.8z M346.8,208.3c-0.4,0.7-0.7,1.3-1,1.8
		c-1.1,1.4-2.2,2.8-3.5,4.1c-0.5,0.5-1.3,0.4-2,0.6c0.2-0.7,0.3-1.3,0.6-1.9c2.6-4.7,5.5-9.2,5.7-14.9c0.1-3.6,1-7.2,1.2-10.9
		c0.2-2.7,0.3-3,2.9-3.6c1.4-0.4,2.9-1,3.6-2.3c3.1-5,5-10.4,4.9-16.2c0-2.6-0.9-5.1-3-7c-1.3-1.2-2.7-1.3-4-0.1
		c-1.9,1.7-3.1,3.8-3.4,6.3c-0.4,2.8-0.5,5.6-0.7,8.4c-0.1,2.3-0.5,4.6-1.6,6.7c-0.4,0.8-1,1.5-1.9,1.2c-0.6-0.2-1-1-1.3-1.7
		s-0.3-1.4-0.3-2.1c-0.4-4.1-0.8-8.1-2.9-11.8c-1.3-2.5-3-4.5-5.5-5.8c-3.5-1.9-4.5-4.2-3.9-8.1c0.2-1.4,0.2-3.1,0-4.5
		c-0.4-3.3-2.2-6.1-3.7-9c-0.9-1.6-1-1.6-2.9-1c-0.7,0.2-1.3,0.4-2,0.8c-1.2,0.6-2.3,1.3-2.6,2.9c-0.3,1.4-1.4,2.2-2.9,2.3
		c-1,0.1-2,0-3,0c-0.6,2.8-1.3,3.4-4.2,3.3c-1,0-2-0.3-3-0.4c0,1.4-0.8,2.4-2.3,2.7c-0.7,0.1-1.3,0.3-2,0.2c-1.6-0.1-3.2-0.4-5-0.5
		c-0.1,1.7-0.5,2.1-2.3,2.3c-0.8,0.1-1.5,0.1-2.3,0.2c-3.4,0.4-7,0.7-10.3-0.6c-1.9-0.7-3.7-1.5-5.6-2.3c-0.4,3.5-0.8,7.2-1.1,10.7
		c-0.2,2.1-0.5,4.3-0.2,6.4c0.5,3.9,1.4,7.7,2.1,11.5c0.1,0.7,0.3,1.3,0.3,2c-0.1,2.5-0.2,5-0.4,7.3c-0.2,2.7-0.3,5.2,0.9,7.7
		c2.1,4.6,4.3,9.2,6.3,13.8c0.6,1.2,1,2.6,1.1,3.9c0.3,3.4,1.5,6.6,3.8,9c4.2,4.7,8.8,9.1,13.2,13.5c0.5,0.5,1.1,0.8,1.7,1
		c3.6,1,7.3,0.9,11,0.2c2.7-0.6,5.4-1.1,7.6-3c2.4-2,4.7-4.2,7-6.3c0.7-0.6,1.1-1.3,1.7-2c0.6-0.6,1.3-0.7,2-0.1
		c0.7,0.6,0.7,1.3,0.2,2c-0.3,0.4-0.8,0.7-1.1,0.9c-2.1,2-4.2,4-6.6,6.2c1.6,0.8,3,1.3,4.3,2c0.3-1.3,0.5-2.6,0.9-3.8
		c0.9-2.6,1.7-3.3,4.3-2.6c2.9,0.9,5.6,2.3,8.4,3.5c0.7,0.3,1.1,0.8,2,1.3c0.2-1.5,0.5-2.9,0.5-4.2c0-5.1,0-10.3,0-15.4
		C346.8,211.4,346.8,209.9,346.8,208.3z M202,419.7c0-0.2,0.1-0.4,0.1-0.6c0.7-9.4,0.3-18.9-0.2-28.2c-0.4-6.3-1-12.6-1.4-18.9
		c-0.1-1.2-0.2-2.2-1.3-3.1c-0.7-0.5-1.2-1.3-1.6-2.2c-0.9-1.9-1.7-3.9-2.4-5.9c-2.4-7.2-4.3-14.6-3-22.4c0.7-3.6,1-7.4,2.9-10.8
		c2.5-4.5,5.1-8.9,7.7-13.3c0.4-0.6,0.7-1.1,0.1-1.6c-0.8-0.9-1.7-1.7-2.4-2.7c-3-3.9-4.1-8.4-4.7-13.1c-0.2-1.4,0-3,0-4.5
		c-1.2-0.1-2.3-0.2-3.4-0.3c0,0.1,0,0.2,0,0.3c2.8,5.7,3.2,11.8,2.5,18c-0.8,5.6-3.3,10-8.9,12.1c-0.3,0.1-0.7,0.3-0.9,0.5
		c-2.5,2.7-5.8,3.5-9.2,4c-1.9,0.3-3.8,0.3-5.4-1c-0.4-0.3-0.8-1-0.8-1.4c0-0.3,0.7-0.8,1.1-0.9c2.8-0.5,3.2-3.3,1.8-5.7
		c-1,1.3-1.9,2.8-3,4c-2.8,3.1-5.4,6.3-8.3,9.2c-5,5.1-9.8,10.3-15.1,15.1c-6.2,5.5-11.6,11.5-16.1,18.5c-4,6.1-5.5,12.9-4.4,20.1
		c0.5,3.1,1.4,6.3,2,9.4c0.2,0.9,0.6,1.2,1.3,1.5c4.8,2.1,9.5,4,14.2,6.3c6.3,3.1,12.7,5.7,19.3,7.6c5.3,1.4,10.9,2.5,16.3,3.7
		c4.6,1,9.2,1.9,13.8,3C195.8,417.4,198.9,418.6,202,419.7z M268.6,531.3c0.2,0,0.3-0.1,0.5-0.1c0.5-3.7,1.1-7.3,1.4-11.1
		c1.6-14.8,3.1-29.5,4.7-44.3c1.6-14.8,3.3-29.4,4.8-44.2c0.6-6.2,0.9-12.5,1-18.7c0.1-3.7-0.7-7.3-2.4-10.7
		c-1.8-3.6-3.5-7.3-5.1-11.1c-2.7-6.2-5-12.6-7.9-18.8c-5-10.8-9.5-21.7-12.3-33.3c0-0.2-0.2-0.4-0.3-0.7
		c-0.2,5.9-0.4,11.6-0.7,17.4c-0.5,8.1-0.8,16.1-1.7,24.2c-1.3,12.2-4,24.2-6.7,36.1c-2.9,13.2-6.7,26-11.9,38.4
		c-0.6,1.4-1.5,2.7-1.7,4.1c-0.6,3.1-2.5,5-5.1,6.4c-1,0.6-2.1,1-3.2,1.6c3.1,2.3,6.2,4.5,9.2,6.8c3,2.3,6,4.6,9,6.9
		c2.1,1.6,4.1,3.3,5.9,5.2c3,3.1,5.9,6,8.6,9.3c3.1,3.9,5.1,8.6,6.6,13.3c1.8,5.6,3.3,11.2,5.1,16.8
		C267.1,527.3,267.9,529.3,268.6,531.3z M237.9,252.1c-1,0-1.5,0.1-2.1,0c-0.4-0.1-0.8-0.4-1.1-0.5c0.3-0.3,0.6-0.7,0.9-0.9
		c1.9-0.9,3.3-2.1,4.4-3.8c1.7-2.8,2.9-5.8,3.5-9c1-4.8,0.7-9.3-3.1-13.1c-0.5-0.5-0.9-0.7-1.6-0.5c-3.5,1.1-5,3-5.1,6.8
		c0,0.9,0.1,1.7,0.1,2.7c0.1,2.4,0.3,4.8,0.4,7.1c0,1.1-0.6,2.1-1.6,2.7c-1.1,0.6-2.1,0.5-3-0.3c-0.9-0.7-1.7-1.4-2.1-2.4
		c-1-2.4-2-4.9-2.4-7.3c-1.1-7-0.8-5.6-5.2-9.6c-1.5-1.3-2.5-3-3-4.9c-0.8-2.3-1.8-4.6-2.7-6.9c-0.5-1-1.2-1.4-2.5-1.5
		c-4.3-0.3-8.7-0.5-13-1.2c-5.7-1-11.2-2.6-13.2-9.2c-3.3,3.2-7.1,5.5-11.1,7.7c-2.7,1.5-5.3,3-8.5,1.2c-1.3,3.2-1.7,6.6-1.3,9.9
		c0.4,3.2,0.8,6.5,1.1,9.7c0.5,3.1,0.8,6.2,1.5,9.2c0.8,3,1.5,6.1,1.4,9.3c-0.1,5.8,0.5,11.5,4.1,16.4c2.7,3.6,5.5,7,8.5,10.4
		c3.1,3.6,6.5,7.1,7.6,11.9c0.2,1,1,1.7,2.1,1.9c1.7,0.3,3.3,0.6,4.9,0.8c0.2-0.2,0.3-0.2,0.3-0.2c0.1-0.4,0.3-0.8,0.4-1.1
		c2.8-7.5,7.2-13.3,15-16.4c4.8-1.9,9.4-4.4,14-6.8C231,261.6,234.3,257,237.9,252.1z M272.8,158.3c0.1,0,0.3,0,0.4,0
		c0.2-4.6,0.4-9.1,0.6-13.6c0-0.5,0.1-1.2,0.4-1.2c0.6-0.1,1.2-0.1,1.8,0.1c2.3,1.1,4.5,2.2,6.8,3.1c3.7,1.5,7.5,1,11.5,0.3
		c-0.1-0.2-0.3-0.3-0.4-0.4c-0.7-0.4-1.1-1-0.8-1.8c0.4-0.9,1.1-0.8,1.9-0.7c1.1,0.2,2.2,0.5,3.3,0.6c1.7,0.2,3.5,0.3,5.3,0.5
		c-0.1-0.6-0.1-0.7-0.1-0.9c-0.3-2,0.4-2.6,2.4-2.1c0.9,0.2,1.7,0.4,2.6,0.5c1.8,0.3,2,0.1,2-1.7c0-1.4,0.5-1.9,1.9-1.7
		c0.9,0.1,1.7,0.2,2.6,0.3c1.1,0.2,1.8-0.3,2.3-1.4c1.2-3.1,3.8-4.8,7-5.5c1.1-0.3,2.3-0.1,2.8,1.2c0.1,0.2,0.3,0.4,0.5,0.6
		c3.3,3.4,5.2,7.4,4.9,12.4c-0.1,0.9-0.1,1.7-0.2,2.5c-0.3,2.7,0.7,4.5,3.2,5.5c3.1,1.2,5.2,3.6,6.5,6.7c1.1,2.8,2.1,5.6,3.1,8.1
		c0.4-1.7,0.7-3.9,1.3-6c1-3.5,2.5-7,5.8-9.1c0.2-0.1,0.4-0.5,0.4-0.8c0.1-5.8,0.3-11.5-0.8-17.3c-0.9-4.7-1.7-9.3-4-13.5
		c-2.2-4.2-5.7-6.9-10.3-7.9c-1.6-0.4-2.7-1.2-3.2-2.7c-1-2.6-3-4.1-5.3-5.2c-2.1-1-4.2-2-6.3-2.9c-4.6-2-9.5-2.6-14.4-1.9
		c-6.1,0.8-12,2.4-17.3,5.6c-2.7,1.7-5.6,2.7-8.9,2.8c-0.4,0-0.9,0.2-1.1,0.4c-1.6,1-4.2,5-3.4,7.4c0.5,1.3-0.4,2.1-1.8,1.8
		c-0.9-0.2-1.5-0.7-2.5-1c-0.9,2.6-1.6,5.2-0.7,8c0.2,0.5,0.1,1.3-0.2,1.5c-0.4,0.3-1.2,0.3-1.7,0.1c-0.6-0.2-1-0.8-1.4-1.2
		c-0.5-0.6-0.9-1.2-1.2-1.8c-0.1,0-0.2,0-0.4,0c-0.2,1.3-0.6,2.7-0.7,4c-0.3,4.8,1.3,9.1,3.4,13.3c1,2,1.3,4.1,0.7,6.2
		C270.2,152.7,271.3,155.5,272.8,158.3z M424.3,248.3c-0.4,2-0.6,3.8,0.2,5.7c0.8,1.8,0.7,3.9-0.4,5.7c-0.6,1-1.7,1.5-2.4,1
		c-1-0.7-0.5-1.4-0.2-2.2c0.6-1.3,0.9-2.7,0.3-4c-0.7-1.5-0.6-3-0.4-4.6c0.1-1.5,0.1-3.1-0.3-4.6c-0.5-1.9-1.6-2.5-3.6-2.5
		c-1.7,0-2.7,1-3.2,2.4c-1.2,2.7-2.4,5.4-3.4,8.2c-1.3,3.5-3.3,6.5-6.1,9.1c-1.3,1.3-2.2,3.1-3.2,4.9c-0.3,0.5-0.4,1.1-0.7,1.6
		c-0.2,0.3-0.6,0.6-0.9,0.8c-0.2-0.4-0.6-0.7-0.5-1.1c0.2-1.4,0.3-2.9,0.9-4.1c1-2,2.4-3.9,3.7-5.8c1.1-1.6,2.4-3.2,2.6-5.3
		c0.3-3.2,0.3-6.5-1.4-9.3c-0.5-0.8-1.4-1.1-2.1-1.8c-0.4,0.7-0.9,1.2-1.2,1.9c-0.4,0.8-0.6,1.6-1,2.5c-0.7,2-1.2,4.1-2.2,6
		c-1.8,3.5-3.7,6.9-5.8,10.2c-1.3,2.1-1.7,4.2-1.1,6.7c0.8,3,1.1,6,1.1,9.1c-0.2,3.7,1.4,7,3.6,9.6c1.6,0,3-0.3,4.4,0.1
		c5.9,1.5,11.6,3.4,17,6.7c3.2,2,6.2,4,8.2,7.4c4-3.1,7.2-6.9,9.1-11.6c1.4-3.5,2.9-7.1,4.2-10.8c0.4-1,0.5-2,0.5-3.1
		c0-1.5-0.2-3-0.4-4.5c-0.1-0.6-0.2-1.2-0.6-1.8c-1.1-1.7-2.3-3.3-3.2-4.7c-1,0.3-1.9,1-2.6,0.8c-1-0.3-0.9-1.4-0.8-2.4
		c0.3-1.8-0.2-3.5-1.2-5c-1.2-1.8-2.2-3.7-2.7-5.9c-0.2-0.7-0.3-1.4-0.7-2C426.8,250.3,426.1,248.9,424.3,248.3z M429.3,390.6
		c0.4-0.3,0.8-0.6,1.1-0.9c4.5-3.6,6.5-8.9,8.7-13.9c0.7-1.6,1.3-3.1,2.6-4.3c2.5-2.3,4.2-5.1,3.9-8.6c-0.1-1.6,0.5-2.9,1.7-3.8
		c1.4-1.1,2.1-2.7,2-4.4c-0.1-1.6-0.6-3.2-0.8-5c-0.1-1.1-0.5-2.4-0.1-3.2c1.1-2.1,0.6-3.8-0.4-5.7c-0.6-1.2-1.4-2.1-2.6-2.9
		c-1-0.7-2.1-1.2-3.1-2c-1.5-1.1-3.1-1.2-5-1c-5.5,0.7-11.1,1.5-16.6,1.4c-1.6,0-3.3,0.6-5,1.1c-1.2,0.4-1.6,1.4-1.3,2.6
		c0.4,1.5,1,1.9,2.7,1.8c2.7-0.2,5.3,0,8-0.3c4.4-0.4,8.9-0.9,13.2-0.4c3.1,0.4,5.3,2,7.6,3.8c0.2,0.2,0.2,0.6,0.3,0.9
		c-0.3,0.1-0.7,0.3-1,0.2c-0.5-0.2-1-0.4-1.4-0.8c-3.5-2.6-7.5-2.7-11.5-2c-4.3,0.8-8.7,1.5-13.1,1.3c-1.1,0-2.3,0.3-3.4,0.7
		c-1.8,0.6-3,2.7-2.7,4.5c1.3,0,2.7-0.1,4,0c6.3,0.6,12.5,1.3,18.7,1.8c3.7,0.3,5.5,2.9,7.4,5.5c-0.6,0.1-1.1,0.1-1.4-0.2
		c-0.8-0.5-1.4-1-2.1-1.6c-1.1-0.9-2.2-1.9-3.7-1.9c-2.7-0.1-5.2-0.1-7.9-0.3c-2.4-0.1-4.9-0.4-7.2-0.5c-2.3-0.1-4.6-0.2-6.9-0.1
		c-0.5,0-1.1,0.5-1.3,1c-0.6,1.3,1,3.9,2.4,4.1c2.8,0.5,5.4,0.8,8.2,1.2c4,0.7,8,1.3,11.6,3.3c0.8,0.4,1.5,1,2.2,1.6
		c0.8,0.9,1.4,1.8,2.1,2.8c0.2,0.3,0.3,0.8,0.5,1.1c-0.1,0.1-0.3,0.2-0.4,0.4c-1-0.7-2-1.4-3-2.1c-0.9-0.6-1.5-1.4-2.5-1.8
		c-3.9-1.6-8.1-2.1-12.3-2.8c-2-0.3-3.9-0.8-5.9-1c-1.2-0.2-2.2,0.6-2.1,1.7c0,1,0.3,2.3,0.9,3c0.8,0.9,2,1.4,3,2
		c3.8,2,7.7,3.9,11.6,5.9c0.8,0.4,1.3,1.1,1.7,1.9c0.2,0.5,0.1,1.3-0.3,1.7c-0.4,0.3-1.2,0.5-1.7,0.3c-0.8-0.4-1.4-1.1-2-1.6
		c-0.4-0.4-0.7-1.1-1.1-1.3c-2.7-1.3-5.4-2.5-8.3-3.8c0,0.8,0,1.2,0.1,1.7c0.6,4.3,2,8.3,4,12.1c0.8,1.4,2,2.8,3.3,3.9
		C426.2,389,427.9,389.7,429.3,390.6z M308.7,237.8c0,0.1,0,0.2-0.1,0.3c0.4,0.3,0.8,0.7,1.1,1c3.1,2.6,6.3,5.1,9.5,7.6
		c7,5.4,14,10.9,21.1,16.3c4.1,3.1,8.5,6.2,12.5,9.5c7.8,6.5,14.6,13.9,20.8,21.9c0.4,0.5,0.8,1,1.3,1.6c0-0.5,0-0.8-0.1-1
		c-1.1-4-2.1-8.1-3.3-12.1c-3-9.2-6.9-18.1-11.3-26.8c-1-1.7-1.5-3.7-3.7-4.5c-0.1,0-0.1-0.1-0.2-0.2c-2.6-1.7-5.1-3.3-7.6-5
		c-0.9-0.6-1.3-0.4-2.1,0.4c-2.8,3-5.5,5.8-8.5,8.6c-1.4,1.3-3.1,1.4-4.3,0.4c-0.8-0.7-1.3-1.6-1.8-2.5c-1.2-2.7-1.6-5.5-1.5-8.5
		c0-2.3,0.2-4.5,0.2-6.8c0-0.4-0.2-1-0.5-1.1c-1.8-1.1-3.6-2.2-5.5-3.2C319.7,236.8,314.5,238.2,308.7,237.8z M335.3,253.8
		c0.7-0.7,1.1-1,1.5-1.3c2.4-2.7,4.8-5.3,7-8c1.9-2.2,4-2.6,6.3-0.9c2.8,2.1,5.4,4.2,8.1,6.3c0.7,0.6,1,0.5,1.5-0.2
		c1.6-2.5,3.2-5,4.9-7.4c0.4-0.7,0.8-1.4,0.8-2.2c0-3.5,0-7.1-0.3-10.7c-0.3-3.5-1-3.8-4.2-2.2c-3,1.5-5.9,3.4-8.3,5.8
		c-2.9,2.9-6.6,3.1-9.8,0.6c-1.6-1.2-3.4-2.2-5.3-3c-3.3-1.3-3.8-1.2-4,2.3c-0.2,5.3,0.1,10.8,0.4,16.1
		C333.9,250.5,334.8,252,335.3,253.8z M43.9,381.2c2.1-0.6,3.8-1.1,5.6-1.5c6.2-1.4,12.5-2.8,18.3-5.5c3.2-1.5,6.4-3.4,9.6-5.1
		c2.7-1.4,4.8-0.7,5.6,2.2c0.1,0.2,0.3,0.5,0.5,0.6c1.1,0.3,2.1,0.5,3,0.7c0.4-3.1,0.7-6.1,1.2-9.2c0.4-2.2,1.1-4.4,0.7-6.5
		c-1.5-0.8-2.9-1.4-4.3-2.1c-0.2-0.1-0.5-0.3-0.7-0.3c-1.4,0-2.2-1-3-1.8c-1.9-2-3.8-4-5.7-6c-3.1-3.3-7.2-4.8-11.5-6.5
		c0.5,2.4,0.8,4.8,2.4,6.6c1.8,2.1,3.9,4.1,6.1,5.9c3.1,2.7,6,5.5,8.4,8.9c0.4,0.6,0.3,1.5,0.4,2.3c-0.7-0.1-1.5-0.1-2.1-0.4
		c-5.6-3.5-11.7-4.6-18.2-4.6c-0.1,0-0.2,0.1-0.3,0.1c0,0.3,0.1,0.6,0.1,0.7c2.9,0.3,5.6,0.6,8.3,1c3.7,0.5,7,2,10.1,3.8
		c0.7,0.4,1.3,1,1,1.8c-0.4,0.9-1,1-2,0.8c-0.8-0.2-1.6-0.3-2.4-0.2c-3.9,0.4-7.7,0.6-11.6,1.1c-4.7,0.7-9.1,2.2-13,5
		C47.7,375,45.6,377.6,43.9,381.2z M123.2,393.4c-0.2-0.6-0.2-0.9-0.3-1c-2.1-7.6-1.6-15.2,1.4-22.5c2-4.9,5.1-8.9,8.4-12.9
		c2.6-3.1,5.2-6.2,7.5-8.9c-0.9,0.1-2.1,0.3-3.3,0.4c-0.5,0.1-1,0-1.4,0.3c-1.4,1-3,1.4-4.8,1.1c-1.8-0.5-3.5-0.9-5.3-1.2
		c-0.3-0.1-0.9,0-1,0.2c-3.5,4.1-7.1,8.2-10.5,12.3c-0.9,1-1.5,2.3-2.2,3.4c0.5-0.1,0.8-0.4,1-0.7c2.8-1.8,5.3-3.7,8.2-5.2
		c1.5-0.9,3.4-1,5.1-1.3c0.6-0.1,1.4,0.4,1.7,0.9c0.2,0.4-0.2,1.2-0.5,1.8c-0.8,1.4-1.7,2.8-2.5,4.2c-0.7,1.3-1.1,2.8-1.7,4.2
		c-1.9,4.7-4.7,8.8-8.4,12.2c-2.1,2-4.6,3.1-7.4,3.2c-0.3,0-0.6,0.1-1,0.1c0,0.1-0.1,0.2-0.1,0.4
		C111.9,387.3,117.4,390.2,123.2,393.4z M107.3,343c-0.3,0.1-0.5,0.1-0.8,0.2c0,0.8,0.1,1.6,0,2.4c-0.2,1-0.4,2-0.8,3
		c-0.2,0.4-1.1,0.6-1.6,0.4c-0.4-0.1-0.8-1-0.7-1.4c0.6-2.1,1-4.3,1.9-6.3c1.5-3.5,0.7-6.9-2.4-9.2c-1.8-1.3-3.5-2.8-5.2-4.2
		c-0.9-0.8-1.6-0.8-2.4,0.1c-0.4,0.4-0.7,0.9-1,1.3c-1,1.5-2.1,3-3,4.8c-0.9,1.5-1.6,3.7-0.2,5.2c1.2,1.2,2.5,2.6,3.8,3.7
		c1.3,1.1,2.3,1,3.7,0c0.5-0.4,1-0.8,1.4-1.2c1.5-1.7,1.8-4.8,0.2-6.2c-0.9-0.8-2.2-1-3.3-1.4c-1-0.4-1.5,0.1-1.6,1
		c0,0.5-0.2,1,0,1.4c0.2,0.7,0.6,1.3,1.1,1.7c0.2,0.2,1-0.5,1.5-0.8c0.4-0.2,1-0.5,1.2-0.4c0.4,0.2,0.7,0.8,0.8,1.1
		c0.2,1.7-1.5,3-3.3,2.5c-1.6-0.4-2.9-1.4-3.3-3.1c-0.6-1.9-0.7-3.8,0.7-5.5c0.3-0.4,0.8-0.7,1.2-0.8c2.4-0.4,4.8,0.1,6.5,1.8
		c1.2,1.2,2.1,2.8,1.8,4.6c-0.3,1.8-0.4,3.7-1,5.4c-1.2,3.9-6.1,6.2-9.6,2.7c-2-2-3.4-4.3-4.2-7c-0.6-2.2,0.1-4.4,0.7-6.5
		c0.3-0.9,0.8-1.6,1.2-2.7c-3.3,0.7-4.1,1.2-4.3,4.1c-0.2,3-0.4,6.1-0.2,9.1c0,1.3,0.8,2.7,1.1,4c0.1,0.3,0.4,0.6,0.5,0.9
		c0.1,0.3,0,0.7-0.2,0.8c-0.2,0.2-0.6,0.2-0.8,0.1c-0.6-0.4-1.1-0.8-1.6-1.3c-1.2-1.4-1.5-3.2-1.6-5.1c-0.1-1.2-0.1-2.5-0.2-3.8
		c-2.5,3.4-2,8.5,1,12.1c1.4,1.7,5.1,3.1,8.2,1.7c-0.5-0.4-1-0.6-1.4-1c-0.3-0.4-0.8-1-0.7-1.3c0.2-0.4,0.9-0.8,1.3-0.8
		c0.9,0,1.6,0.3,2.5,0.5c2.1,0.5,4.2,0.9,6.2,1.4c0.5,0.1,1.1,0.8,1.1,1c-0.1,0.5-0.7,1.1-1.1,1.2c-1.1,0.3-2.4,0.2-3.6,0.3
		c-0.3,0-0.7,0.2-1,0.3c0,0.2,0.1,0.4,0.1,0.5c1.2,0.2,2.5,0.4,3.7,0.5c5,0.3,9.3-4.3,8.7-9.1C108.3,344.8,107.7,343.9,107.3,343z
		 M79.6,428.9c-0.7,4.5-1.3,8.9-2,13.2c-0.2,1.1,0.4,1.7,1.3,2c2.9,0.9,5.7,1.9,8.7,2.4c4.2,0.7,5.1,0.5,4.9-4.7
		c-0.2-6.1,0.1-12.2,1-18.2c0.2-1.4,0.3-2.9,0.5-4.5c-0.5,0.2-0.6,0.3-0.8,0.3c-2.4,1-3.5,3-4.6,5.2
		C87.2,427.6,83.2,430.6,79.6,428.9z M86.1,308.8c-2.2,0.3-4.1,1.4-5.9,2.9c-1.3,1.1-2.7,2.1-4.1,2.8c-2.3,1-3.9,2.6-4,4.9
		c-0.1,2.4-1.1,4.2-1.9,6.3c-0.6,1.7,0.1,3.4,1.6,4.5c0.8,0.5,1.5,1,2.3,1.2c2.5,1.1,5,2,7.4,3.1c1.5,0.7,2.1,0.5,2.2-1
		c0.3-2.8,1.6-4.6,4.4-5.2c0.7-0.2,1.3-0.6,2-0.7c1.6-0.2,3-0.9,4.1-1.9c0.3-0.2,0.5-0.8,0.4-1c-0.3-2.3-1.3-4.2-2.9-5.9
		c-0.9-1.1-1.1-2.2-1-3.5c0.1-0.8,0.4-1.5,0.3-2.2c0-0.7-0.2-1.5-0.7-2.1C89.5,309.6,88,308.9,86.1,308.8z M141.2,309
		c-0.1-0.1-0.3-0.2-0.4-0.3c-0.2,0-0.3,0-0.5,0c-5.2,0.4-9.7,2.7-13.7,5.8c-1.5,1.2-2.9,2.7-4.2,4.1c-1,1-1.9,2.3-3,3.3
		c-1.4,1.2-2.5,2.6-2.9,4.5c-0.2,0.9-0.4,1.8-0.7,2.7c-1.1,3.9-2.6,5-6.6,5.3c-0.2,0-0.4,0-0.8,0.1c0,1.8,0,3.6,0,5.5
		c0.4,0.2,0.9,0.6,1.3,0.9c0.4-0.7,0.7-1.3,1.1-1.9c0.3-0.4,0.8-0.8,1.1-1c2-1,4-2,6-3c0.8-0.4,0.9-0.9,0.7-1.7
		c-0.8-3.6,2.5-7.5,6.2-7.4c1.5,0.1,3.1,0.2,4.3-1c0.6-0.5,1.6-0.4,2.1-1c1.3-1.3,2.7-2.8,3.6-4.3
		C137.4,316.3,139.2,312.7,141.2,309z M441.8,377.6c-2.5,4.8-4.1,9.8-8.1,13.8c1.8-0.1,3.3-0.3,4.9-0.2c1,0,2,0.5,2,1.5
		c0,0.8-0.4,1.8-1,2.2c-1,0.7-2.3,1.2-3.5,1.4c-3.8,0.6-7.2-0.4-10.2-3c-1-0.9-2.2-1.5-3.3-2.2c1.9,4.4,3.8,8.6,7,12.1
		c1,1.1,2,2.1,3.5,2.5c0.4,0.1,1,0.1,1.2-0.1c4.7-3,7.9-7.1,9.9-12.1c1.1-3,0.6-6,0-9.1C443.7,382.1,443.1,379.8,441.8,377.6z
		 M445.5,400.6c-0.2-0.1-0.4-0.1-0.5-0.2c-2.2,3.9-5.4,6.6-9.3,8.7c-0.8,0.4-1.7,0.8-2.5,0.6c-2.4-0.6-4.6-1.4-6.3-3.4
		c-2.4-2.9-4.4-5.8-5.8-9.2c-0.8-1.8-1.6-3.5-2.4-5.3c-0.1,0-0.2,0-0.2,0c0.9,8,1.7,16.1,2.6,24.1c4.6,0.9,8.8-0.2,13-1.1
		c3.1-0.8,5.5-2.4,7.3-5c0.8-1.1,1.7-2.2,2.2-3.4C444.3,404.5,444.8,402.5,445.5,400.6z M98.3,324.4c2.6,1.7,5.3,3,7.5,5
		c1.3,1.1,2.4,1.8,4,1.5c0.1,0,0.3,0,0.4,0c1,0,1.8-0.4,2.2-1.5c0.4-1,0.8-1.9,1.1-3c0.8-2.4,1.9-4.7,3.9-6.4c1.7-1.5,2.6-3,2.2-5.4
		c-0.3-1.9-0.9-3.5-2.1-5c-0.8-0.9-1.7-1.2-2.7-0.9c-2.3,0.8-4.6,0.5-7,0.4c-1.9-0.1-3.3,1-4.2,2.3c1.6,1.8,3,3.4,4.5,5.1
		c1.5-1.9,3.2-2.8,5.3-1.9c0.1,0,0.3,0.1,0.4,0c0.3-0.2,0.7-0.5,0.8-0.8c0.1-0.2-0.3-0.8-0.6-0.8c-1.8-0.2-3.7-0.9-5.5,0.1
		c-1,0.5-1.6,0-1.6-1c0-1.1,1-2.3,2.4-2.3c1.9,0,3.7,0.1,5.6,0.4c1.3,0.2,2.3,1.1,2.5,2.5c0.3,1.5-0.3,2.9-1.4,3.9
		c-1,1-2.3,0.8-3.4,0.3c-0.9-0.4-1.6-0.6-2.3,0.4c2.4,1.8,2.9,4.9,1,6.9c-1,1.2-2.3,2.3-2.7,4c0,0.3-0.7,0.7-1,0.6
		c-0.3-0.1-0.7-0.5-0.8-0.9c-0.1-0.5-0.1-1.1,0.2-1.6c0.5-1,1.1-1.8,1.6-2.7c1.3-1.7,1.1-2.9-0.9-3.5c-2.7-0.9-4.2-2.6-4.8-5.3
		c-0.1-0.5-0.2-0.9-0.4-1.5c-0.6,0.4-1.1,0.6-1.3,1c-0.4,1-0.9,2.1-0.9,3.2c0.1,2-0.3,3.7-1.5,5.2C98.7,323.5,98.4,324.1,98.3,324.4
		z M137.8,345.1c1.9-0.3,2.7-1.5,3-3.1c0.5-2.4,1-4.9,1.2-7.3c0.1-0.8-0.3-1.7-0.8-2.3c-0.8-0.8-1.7-1.4-2.8-1.9
		c-1.3-0.7-2.6-1.3-3.5-2.6c-1.5-2.1-3.5-2.1-5.3-0.2c-0.9,0.9-1.8,1.2-3,1c-0.8-0.1-1.4-0.4-2.2-0.5c-0.3,0-0.8,0-1,0.2
		c-1.1,1.2-2,2.6-1.4,4.4c0.5,1.6,0.1,3.1-0.9,4.5c-0.6,0.9-1.1,1.8-1.4,2.8c-0.6,2.2,0.8,3.8,3,3.5c0.1-1,0.2-2.2,0.4-3.2
		c0.6-2.8,1.2-5.6,2-8.4c0.1-0.5,0.8-0.9,1.1-1.2c0.1,0.1,0.3,0.2,0.4,0.3c0,1,0,2.1,0,3.1c-0.1,3.2-0.3,6.5-0.4,9.8
		c0,1.1,0.2,2.3,1.2,3c1.8,1.1,5.1,0.2,6.3-1.7c-0.3,0-0.7,0-1,0c-1.6-0.1-3-0.7-4-2c-0.2-0.4-0.2-1-0.1-1.4c0-0.2,0.7-0.3,1-0.2
		c2.6,0.8,4.4-0.7,6.1-2.2c2.2-2,1.5-4.9-0.6-6.5c-1.1-0.9-2.6-0.5-3.1,0.9c-0.3,0.8-0.3,1.6-0.5,2.6c0.8,0,1.1-0.2,1.5-0.1
		c0.6,0.2,1.4,0.5,1.7,1c0.4,0.9-0.1,1.6-0.9,2.1c-1.7,1-4.2-0.3-4.4-2.3c-0.1-1-0.1-2.1,0-3.1c0.2-2.1,1.7-4,3.7-4.5
		c1.5-0.4,3.6,0.6,4.8,2.2c0.6,0.8,1.1,1.6,1.5,2.5c1.3,2.9,1.2,6.4-1.3,8.7C137.6,343.3,137.4,344,137.8,345.1z M393.7,295.2
		c14.2,1,23.9,8.5,31.1,20c0.7-1.1,1.2-2.3,0.8-3.7c-0.5-1.3-0.7-2.8-1-4.1c-0.7-2.4-1.3-4.8-3.7-6.1c-2.9-1.6-5.5-3.3-8.4-5
		c-1.3-0.8-2.9-1.4-4.3-2c-2.9-1.1-5.7-1.9-8.6-2.8c-1.2-0.4-2.6-0.6-3.5,0.5C395.2,293,394.5,294.2,393.7,295.2z M123.3,360.6
		c-6.1,0.6-17,11.3-19.1,19.1c3,1.1,5.7,0.7,8.1-1.3c3.5-2.9,6.1-6.4,7.8-10.6C121.1,365.4,122.2,363.1,123.3,360.6z M77.1,446.6
		c-1,3.8-2,7.4-3,11.2c-0.3,1,0.3,1.6,1.3,1.8c0.1-0.3,0.2-0.6,0.2-0.8c0.8-3,1.4-6,2.3-9c0.1-0.4,0.6-0.8,1-0.9
		c0.1-0.1,0.7,0.4,0.8,0.7s0,0.7,0,1c-0.8,3.8-1.6,7.6-2.5,11.3c-0.2,0.8-0.1,1.2,0.7,1.5c0.6,0.2,1.2,0.3,1.9,0.5
		c0.1-0.3,0.2-0.4,0.2-0.6c0.5-3.7,1-7.3,1.5-11.1c0.1-0.5,0.6-0.9,1-1.2c0.2,0.5,0.6,1,0.6,1.4c-0.1,2.4-0.3,4.9-0.4,7.2
		c-0.1,1.6,0,3.1,0,4.8c2.1,0.4,2.1,0.4,2.6-1.7c0.1-0.6,0.2-1,0.3-1.6c0.4-2.7,0.7-5.3,1.1-8c0.1-0.5,0.6-0.9,0.9-1.3
		c0.3,0.5,0.8,1,0.9,1.4c0.1,0.5-0.1,1.1-0.1,1.6c-0.1,2.1-0.3,4.1-0.4,6.4c1.4-0.5,1.9-1.6,2.2-2.8c0.6-2.9,0.3-5.7,0-8.7
		C85.4,450.3,81.2,448.8,77.1,446.6z M102,309.9c2.7-3.2,3.2-3.5,7.3-3.7c0.5,0,1-0.5,1.3-0.9c3-4.5,3.1-9.3,1.8-14.4
		C107.3,292.3,101.6,302.6,102,309.9z M66.1,299.7c-1,5,1.5,10.7,5.1,13.3c0.6,0.4,1,0.5,1.6-0.1c0.6-0.6,1.3-1,2.1-1.4
		c1.6-1,3.1-2,5-3.1C76.1,304,72,300.5,66.1,299.7z M100.6,367.9c5.3-8.2,11-16.2,18.5-22.7c-1.5-1.8-1.6-4.1-1.3-6.4
		c-1.4,0.4-2.8,0.7-4.1,1c-0.2,0-0.4,0.1-0.5,0.2c-0.4,1.6-1.7,3-1.4,4.9c0.5,2.4,0.5,4.8-1,6.9c-1.6,2.3-3.5,4.3-6,5.6
		c-0.3,0.1-0.6,0.3-0.7,0.6C102.9,361.3,101.8,364.6,100.6,367.9z M62.7,324.8c0.1,0.1,0.3,0.2,0.4,0.3c1.8-2,3.6-3.9,5.6-6.1
		c-0.7-0.3-1-0.5-1.3-0.6c-2.1-0.4-5.5,1.4-6.4,3.4c-0.6,1.4-1,3-1.5,4.5c-0.7,2.2,0,3.3,2.3,3.8c0.3,0,0.5,0.1,0.8,0.1
		c1.8,0,3.2,0.8,4.4,2.2c0.8,0.9,1.7,1.5,2.8,2.1c1,0.5,2,0.4,3.1-0.3c-0.9-0.9-1.6-1.7-2.4-2.6c-3-3.2-3.1-6-0.7-9.7
		c0.2-0.3,0.4-0.6,0.5-0.9c-0.1-0.1-0.2-0.1-0.3-0.2c-0.8,1-1.3,2.2-2.2,3.1c-1,1.1-2.3,2.4-3.6,3.1c-1.6,0.9-3.3-0.1-3.3-1.8
		c0-1.7,0.5-3.4,2.1-4.4c0.4-0.2,1-0.2,1.3-0.3c0,0.5,0.1,1,0,1.5c-0.1,0.4-0.5,0.7-0.7,1C63.3,323.8,63,324.3,62.7,324.8z
		 M88.9,387.5c-1-0.8-1.6-1.5-2.6-2c-3.8-1.9-7.9-3.2-11.1-6.3c-1.5,2-2.1,4.1-1.7,6.4c0.2,1,0.8,2,1.4,2.9c0.2,0.3,1.1,0.5,1.4,0.2
		c1.4-1,3.1-1.2,4.8-1.2C83.7,387.4,86.1,387.5,88.9,387.5z M95.3,375.6c1.4-6.3,3.6-11.8,6.2-17.1c-2.2-0.4-4.4-0.8-6.7-1.1
		c-1,5.5-1.3,11.3-0.6,17.1C94.3,374.8,94.9,375.2,95.3,375.6z M122.8,347.5c-1.8-1.1-3-0.2-3.9,1c-3.2,4-6.6,7.9-9.6,12
		c-4,5.2-7.1,11-9.7,17.1c0.4,0.4,0.8,0.7,1.2,1C105.7,366.5,112.5,355.7,122.8,347.5z M83.8,401.5c-2.8,0.4-5.7,0.4-8.3,1.8
		c-0.6,0.3-1.1,0.8-1.6,1.1c-0.3,0.2-0.6,0.6-0.6,0.9c-0.4,1.6,0.7,3.7,1.9,4.3C78.1,406.8,80.9,404.1,83.8,401.5z M49.9,357.9
		c1.2,0.9,2.6,1.7,3.8,2.6c0.3,0.2,0.7,0.3,1,0.4c1.2,0.2,2.9-1.1,3.1-2.6c0.2-1-0.4-1.5-2-1.9C53.7,355.8,51.8,356.5,49.9,357.9z
		 M90.4,373.9c0.2-0.1,0.3-0.2,0.5-0.3c-0.2-5.7,0-11.4,2-17c-2,0.2-1.9,0.2-2.1,1.9c-0.1,1-0.3,1.9-0.3,2.9
		c-0.2,3.7-0.5,7.4-0.6,11.2C89.9,373.1,90.2,373.4,90.4,373.9z M156.5,315.7c-2.6,0.2-4.3,1.2-5.3,3.4c-0.7,1.2,0.3,1.6,0.9,2.2
		c0.7,0.7,1.3,0.1,1.6-0.5C154.7,319.1,155.5,317.4,156.5,315.7z M90,294.6c0.2,1.1,0.3,2.1,0.6,3c0.5,1.1,1,2.2,1.7,3.1
		c0.8,1.1,1.7,0.8,2.1-0.5c0.2-0.6,0.1-1.3-0.1-1.9C93.8,296.3,91.9,295.7,90,294.6z M75.3,337c1.2,2,2.4,4,3.5,5.9
		c0.5-1.8,0.9-3.5,1.5-5.3c-1-0.4-2.2-0.8-3.3-1.1C76.1,336,75.7,336.1,75.3,337z M98.4,316.6c0.2-0.9,0.7-1.7,0.7-2.6
		c-0.2-3.7-1.3-7.1-3-10.4c-0.1-0.3-0.5-0.4-0.7-0.6C96.4,307.6,97.4,312.1,98.4,316.6z M149.3,323.1c-0.1-0.1-0.3-0.2-0.4-0.3
		c-1.8,1.9-3.5,3.8-5.3,5.7c-0.2,0.2,0.1,0.8,0.3,1.4c1.1-1.4,2.1-2.5,3-3.6C147.7,325.2,148.9,324.5,149.3,323.1z"/>
</g>
<path class="st0" d="M85.5,312.9c-0.8,0.4-1.3,0.7-1.9,1c-1.1,0.6-2.2,1.3-3.4,1.8c-1.5,0.7-2.6,1.8-2.9,3.4
	c-0.1,0.4-0.2,1.1,0.1,1.3c0.7,0.5,0.6,1,0.1,1.3c-0.4,0.3-1,0.6-1.5,0.5c-1.1-0.2-1.5-1.1-1.5-2.2c-0.2-2.8,1.9-5.7,4.7-6.9
	c1.3-0.5,2.6-1.1,3.8-1.8c0.6-0.3,1.1-0.6,1.7-0.7c1.8-0.3,3,0.8,3.1,2.7c0.1,3-1.1,4.8-3.9,5.9c-0.8,0.4-1.5,0.9-2.1,1.5
	c1.2-0.2,2.4-0.6,3.6-0.7c1-0.1,1.9,0.1,2.9,0.2c1,0.1,1.5,0.7,1.4,1.7c-0.1,1-1,1.5-1.9,1.4c-0.6-0.1-1.3-0.4-1.7-0.9
	c-0.9-0.9-1.6-1-2.5-0.3c-0.6,0.5-1,1.2-1.3,1.9c-0.8,1.9-2,3.2-3.7,4.3c-2.1,1.2-4.6,0.6-6.1-1.8c0.8-0.1,1.4-0.4,2-0.3
	c1.8,0.2,4.3-1.8,4.5-3.6c0.3-2.6,1.3-4.7,3.8-5.9C84.5,316.4,85.5,315.1,85.5,312.9z"/>
</svg>
